<?xml version="1.0" standalone="no"?>
<!DOCTYPE svg PUBLIC "-//W3C//DTD SVG 20010904//EN"
 "http://www.w3.org/TR/2001/REC-SVG-20010904/DTD/svg10.dtd">
<svg version="1.0" xmlns="http://www.w3.org/2000/svg"
 width="300.000000pt" height="180.000000pt" viewBox="0 0 300.000000 180.000000"
 preserveAspectRatio="xMidYMid meet">
<metadata>
Created by potrace 1.10, written by Peter Selinger 2001-2011
</metadata>
<g transform="translate(0.000000,180.000000) scale(0.100000,-0.100000)"
fill="#ffffff" stroke="none">
<path d="M805 1758 c-210 -92 -387 -306 -533 -647 -40 -91 -64 -130 -130 -210
-45 -54 -88 -103 -96 -110 -9 -8 -13 -24 -11 -44 25 -205 40 -296 53 -314 25
-40 108 -93 234 -151 68 -32 152 -75 188 -97 48 -30 77 -40 111 -41 26 -1 58
-10 72 -19 40 -26 85 -33 243 -36 l146 -4 53 75 c104 146 129 175 174 205 36
24 46 35 44 55 -24 254 -36 312 -64 318 -8 1 -21 -10 -30 -25 -13 -24 -32 -32
-125 -58 -177 -49 -303 -38 -366 32 -40 44 -61 115 -68 233 l-6 115 41 40 c22
22 66 53 98 69 65 32 101 32 168 -4 22 -11 43 -20 47 -20 4 0 8 26 8 58 0 36
9 79 25 117 20 51 29 61 57 70 24 7 31 13 26 25 -3 8 -9 80 -11 160 -3 80 -9
153 -14 162 -15 28 -117 60 -204 65 -66 3 -89 0 -130 -19z m190 -9 c28 -7 56
-16 63 -22 6 -5 12 -7 12 -3 0 4 14 0 30 -9 33 -17 36 -25 18 -44 -7 -8 -8
-11 -2 -8 8 5 12 -11 13 -48 0 -31 -4 -55 -9 -55 -6 0 -10 -5 -10 -11 0 -5 4
-8 9 -4 6 3 10 -3 11 -12 0 -10 3 -46 6 -80 5 -56 4 -62 -15 -68 -12 -3 -30
-23 -40 -43 l-18 -36 4 51 c7 64 -6 73 -112 75 -42 0 -78 5 -81 10 -3 4 -11 8
-17 8 -8 0 -7 -4 2 -9 11 -7 7 -13 -20 -24 -30 -13 -36 -12 -51 1 -12 10 -18
11 -18 4 0 -7 5 -12 11 -12 8 0 8 -4 -1 -14 -6 -8 -17 -14 -23 -12 -7 1 -9 1
-6 -1 6 -4 1 -26 -24 -95 -5 -15 -12 -26 -16 -23 -4 2 -6 -10 -3 -28 3 -26 1
-29 -8 -17 -9 12 -10 8 -6 -17 14 -80 18 -93 32 -93 8 0 0 -13 -19 -31 -28
-27 -32 -38 -34 -86 -1 -64 -12 -84 -14 -27 -1 21 -3 56 -4 76 -1 21 1 36 4
34 3 -2 6 17 6 42 1 59 10 114 28 174 8 26 12 49 9 52 -3 4 0 6 6 6 7 0 12 7
12 15 0 50 65 100 97 73 11 -9 13 -8 11 3 -2 11 13 14 72 15 41 1 94 -1 118
-6 82 -15 108 45 69 159 -12 34 -13 48 -4 62 16 25 1 38 -60 55 -26 7 -59 16
-72 20 -14 4 -22 3 -18 -2 3 -6 -9 -8 -29 -6 -21 3 -48 -3 -74 -17 -49 -25
-50 -25 -50 -5 0 10 5 14 16 10 8 -3 12 -2 9 4 -3 6 2 10 12 10 11 0 23 4 29
9 10 11 61 19 84 15 8 -2 38 -8 65 -15z m-225 -42 c0 -7 -16 -21 -35 -30 -19
-9 -35 -21 -35 -27 0 -5 -7 -6 -17 -3 -11 4 -14 3 -9 -5 4 -7 2 -12 -3 -12 -6
0 -47 -36 -90 -80 -44 -44 -83 -80 -87 -80 -11 0 30 45 106 118 96 93 105 101
136 117 35 18 34 18 34 2z m254 1 c46 -13 69 -28 43 -28 -18 0 -25 -44 -8 -54
12 -8 33 -120 25 -139 -5 -14 -26 -16 -147 -15 -186 2 -202 -4 -239 -99 -31
-80 -54 -189 -63 -293 -8 -95 25 -331 54 -388 30 -59 84 -102 129 -102 20 0
73 -7 116 -14 68 -12 85 -12 115 -1 36 14 152 48 204 59 15 4 27 11 27 17 0 6
-6 9 -14 6 -9 -4 -13 0 -11 11 1 9 8 16 14 15 6 -2 11 5 11 14 0 13 3 14 12 5
8 -8 9 -15 2 -22 -5 -5 -8 -53 -7 -110 4 -121 -4 -140 -55 -140 -20 0 -102
-23 -182 -51 -182 -63 -256 -71 -379 -39 -120 30 -195 72 -271 149 -76 76
-119 157 -145 272 -20 85 -15 169 11 169 15 0 17 5 14 67 -2 65 114 289 231
444 163 215 351 313 513 267z m-563 -291 c-10 -9 -11 -8 -5 6 3 10 9 15 12 12
3 -3 0 -11 -7 -18z m587 -41 c4 -31 -19 -100 -51 -154 -19 -31 -20 -32 -43
-17 -46 30 -99 15 -181 -51 -23 -19 -44 -34 -47 -34 -3 0 -6 21 -6 48 1 54 40
176 64 201 29 29 79 40 171 38 l90 -2 3 -29z m-607 1 c-10 -9 -11 -8 -5 6 3
10 9 15 12 12 3 -3 0 -11 -7 -18z m-21 -38 c-7 -11 -14 -18 -17 -15 -3 3 0 12
7 21 18 21 23 19 10 -6z m-43 -71 c-3 -8 -6 -5 -6 6 -1 11 2 17 5 13 3 -3 4
-12 1 -19z m647 -79 c-10 -13 -13 -19 -6 -15 7 4 12 1 12 -7 0 -10 -7 -13 -20
-10 -19 5 -29 33 -11 33 5 0 11 10 15 22 4 18 8 20 17 11 10 -10 8 -17 -7 -34z
m-127 5 c-3 -3 -12 -4 -19 -1 -8 3 -5 6 6 6 11 1 17 -2 13 -5z m48 -4 c3 -6
-1 -7 -9 -4 -18 7 -21 14 -7 14 6 0 13 -4 16 -10z m-85 -5 c0 -2 -10 -10 -22
-16 -21 -11 -22 -11 -9 4 13 16 31 23 31 12z m-609 -188 c-10 -9 -11 -8 -5 6
3 10 9 15 12 12 3 -3 0 -11 -7 -18z m9 -32 c0 -7 -7 -18 -15 -25 -8 -7 -17
-27 -21 -46 -5 -26 -9 -32 -19 -24 -13 11 -45 4 -45 -11 0 -5 -7 -9 -15 -9 -8
0 -14 -3 -13 -7 1 -5 -9 -26 -23 -48 -14 -22 -29 -53 -33 -69 -6 -23 -10 -26
-16 -16 -5 9 -5 19 1 26 7 8 6 13 -3 16 -10 4 -10 8 1 21 7 9 16 15 20 13 4
-3 12 7 19 22 6 15 22 38 34 52 13 14 40 46 60 71 35 43 68 60 68 34z m417
-67 c-3 -8 -6 -5 -6 6 -1 11 2 17 5 13 3 -3 4 -12 1 -19z m-480 -74 c7 -199
136 -390 323 -481 121 -59 193 -76 330 -76 129 0 228 19 299 59 24 13 46 22
48 20 7 -7 -145 -193 -163 -200 -80 -31 -465 35 -524 89 -14 13 -90 58 -170
100 -158 83 -190 108 -220 170 -30 62 -36 208 -11 258 18 35 71 105 81 106 3
1 6 -20 7 -45z m493 36 c0 -5 -2 -10 -4 -10 -3 0 -8 5 -11 10 -3 6 -1 10 4 10
6 0 11 -4 11 -10z m-13 -42 c-3 -8 -6 -5 -6 6 -1 11 2 17 5 13 3 -3 4 -12 1
-19z m19 -29 c3 -6 1 -16 -6 -22 -10 -9 -12 -8 -7 5 3 9 1 19 -6 22 -9 3 -9 5
0 5 6 1 15 -4 19 -10z m-446 -82 c0 -10 -4 -16 -9 -12 -6 3 -10 13 -10 23 1 9
-2 28 -5 42 -5 21 -4 20 8 -5 9 -16 15 -38 16 -48z m511 -37 c6 0 8 -7 5 -16
-3 -8 -2 -12 4 -9 9 6 70 -21 70 -30 0 -11 -60 3 -84 18 -28 19 -61 80 -51 96
3 6 1 11 -5 11 -6 0 -8 5 -4 12 4 7 16 -7 31 -35 13 -26 28 -47 34 -47z m-683
-40 c0 -9 -3 -7 -8 5 -5 11 -8 29 -8 40 0 16 2 15 8 -5 4 -14 8 -32 8 -40z
m192 28 c0 -7 7 -25 14 -40 11 -21 12 -29 3 -34 -7 -4 -9 -4 -5 0 4 5 -2 23
-13 42 -22 40 -23 44 -9 44 6 0 10 -6 10 -12z m1037 -10 c-3 -8 -6 -5 -6 6 -1
11 2 17 5 13 3 -3 4 -12 1 -19z m-137 -6 c0 -9 -92 -33 -98 -27 -2 2 18 10 45
18 26 8 49 15 51 16 1 1 2 -3 2 -7z m47 2 c-3 -3 -12 -4 -19 -1 -8 3 -5 6 6 6
11 1 17 -2 13 -5z m101 -80 c0 -31 -2 -53 -5 -50 -8 8 -12 106 -4 106 4 0 8
-25 9 -56z m-268 39 c-8 -3 -17 -9 -20 -13 -3 -3 -25 -4 -50 -1 -43 4 -43 5
-15 12 36 8 106 10 85 2z m-723 -68 c0 -8 -4 -12 -9 -9 -4 3 -8 9 -8 15 0 5 4
9 8 9 5 0 9 -7 9 -15z m57 -74 c-5 -5 -43 42 -44 54 0 6 11 -3 24 -20 13 -16
22 -32 20 -34z m-245 -15 c20 -22 35 -43 33 -48 -1 -4 6 -8 17 -8 10 0 24 -7
31 -15 7 -8 19 -15 27 -15 8 0 11 -4 8 -10 -3 -5 3 -10 14 -10 30 0 71 -21 64
-33 -4 -6 0 -8 9 -5 8 4 37 -7 64 -24 27 -16 38 -26 24 -22 -14 4 -27 9 -30
13 -3 3 -12 7 -20 9 -8 2 -17 8 -18 13 -2 5 -7 7 -11 4 -19 -11 -195 90 -185
107 3 5 -2 8 -12 6 -12 -2 -18 2 -16 10 1 8 -1 11 -6 8 -5 -3 -16 4 -25 15 -9
10 -14 19 -11 19 4 0 1 7 -6 16 -29 34 14 8 49 -30z m1184 8 c-2 -6 0 -15 6
-19 15 -9 -5 -45 -24 -45 -8 0 -33 -18 -55 -40 -22 -22 -38 -40 -35 -40 3 0
-3 -9 -12 -19 -10 -11 -33 -44 -52 -75 -19 -30 -38 -53 -43 -50 -4 3 -5 -2 -2
-10 4 -11 0 -16 -11 -16 -9 0 -14 -4 -11 -9 10 -15 -18 -28 -49 -21 l-30 6 32
11 c17 6 40 24 49 40 10 15 33 43 51 61 17 17 30 32 27 32 -3 0 6 14 20 31 29
35 32 54 12 75 -16 15 -30 19 -22 6 7 -11 -43 -40 -101 -57 -53 -16 -77 -19
-70 -7 3 4 -8 7 -24 7 -35 0 -36 -3 -7 -14 52 -19 -131 -23 -262 -5 -51 7
-120 29 -120 39 0 5 37 -2 52 -11 43 -27 263 -25 312 3 10 6 28 8 39 5 15 -4
18 -2 12 8 -5 9 -4 11 4 6 6 -4 18 -2 26 4 8 6 24 9 37 5 16 -4 19 -3 10 3
-11 7 -8 11 10 17 34 12 108 25 150 28 20 1 34 5 32 9 -2 3 4 13 13 20 10 7
18 19 19 26 3 34 4 37 13 23 5 -8 7 -20 4 -27z m-877 -41 c-7 -7 -26 7 -26 19
0 6 6 6 15 -2 9 -7 13 -15 11 -17z m74 -49 c0 -3 -13 3 -30 13 -16 9 -30 21
-30 26 0 5 14 -1 30 -13 17 -12 30 -24 30 -26z m35 -12 c-3 -3 -11 0 -18 7 -9
10 -8 11 6 5 10 -3 15 -9 12 -12z m75 -188 c0 -2 -9 -4 -21 -4 -11 0 -18 4
-14 10 5 8 35 3 35 -6z m220 -44 c32 -7 30 -8 -20 -9 -30 0 -68 6 -85 14 -29
14 -29 14 20 9 28 -4 66 -10 85 -14z m97 -6 c-3 -3 -12 -4 -19 -1 -8 3 -5 6 6
6 11 1 17 -2 13 -5z"/>
<path d="M1127 369 c7 -7 15 -10 18 -7 3 3 -2 9 -12 12 -14 6 -15 5 -6 -5z"/>
<path d="M878 293 c7 -3 16 -2 19 1 4 3 -2 6 -13 5 -11 0 -14 -3 -6 -6z"/>
<path d="M2135 1762 c-137 -40 -319 -146 -328 -191 -12 -57 -69 -125 -243
-288 -26 -24 -31 -62 -12 -92 29 -47 -47 -584 -122 -871 -5 -20 -18 -87 -29
-150 -17 -101 -17 -115 -4 -129 12 -12 19 -12 35 -2 10 6 72 23 136 36 339 69
362 78 449 168 38 40 81 92 96 117 29 51 43 142 29 181 -10 26 -9 27 50 43 61
17 61 17 85 -6 48 -45 76 -106 133 -295 23 -75 27 -79 58 -64 50 25 253 66
330 66 45 0 82 3 82 8 0 4 21 17 48 30 37 18 47 27 47 47 0 31 -38 40 -66 14
-10 -9 -22 -14 -27 -10 -4 4 1 13 11 20 25 19 21 45 -18 106 -19 30 -35 64
-35 77 0 25 -398 834 -491 998 -41 72 -65 126 -68 155 -6 44 -6 45 -46 47 -22
1 -67 -6 -100 -15z m111 -8 c15 -4 20 -11 17 -24 -4 -16 -8 -17 -23 -7 -10 6
-16 15 -14 19 3 4 -2 8 -11 8 -9 0 -14 -4 -11 -8 5 -9 -123 -46 -132 -38 -2 3
-17 -3 -31 -13 -14 -10 -39 -21 -56 -25 -28 -6 -29 -5 -11 9 10 8 22 12 26 10
4 -3 13 2 20 10 6 7 39 23 73 34 97 31 118 34 153 25z m93 -264 c209 -428 327
-689 403 -895 41 -112 42 -108 -22 -122 -30 -7 -76 -19 -102 -27 l-48 -14 0
32 c0 26 -5 34 -30 43 -39 15 -66 75 -86 191 -9 48 -22 112 -31 142 -8 30 -15
63 -16 73 -1 9 -4 16 -7 14 -76 -43 -193 -72 -257 -63 -39 5 -44 3 -57 -22 -7
-15 -16 -64 -19 -110 -3 -51 -11 -92 -21 -108 -15 -22 -15 -25 -1 -31 25 -9
36 -49 29 -108 l-7 -54 -68 -25 c-94 -35 -171 -53 -257 -61 l-73 -7 6 36 c4
20 4 36 1 36 -4 0 -25 -9 -47 -21 -23 -11 -43 -18 -45 -16 -3 2 4 20 15 38 27
48 143 361 186 504 50 165 90 362 110 535 9 80 21 150 26 156 14 17 101 53
204 85 50 15 93 28 96 28 3 1 56 -103 118 -229z m-395 148 c-3 -4 -10 -8 -16
-8 -19 0 -37 -34 -38 -70 0 -26 -3 -31 -10 -20 -7 11 -9 4 -7 -25 3 -75 -3
-141 -12 -127 -4 7 -4 36 1 64 10 56 4 67 -37 63 -22 -3 -22 -2 -9 24 8 14 14
32 14 39 0 7 8 16 18 19 9 4 29 16 43 28 26 21 64 30 53 13z m407 -100 c8 -15
8 -18 0 -14 -6 4 -16 16 -22 28 -8 15 -8 18 0 14 6 -4 16 -16 22 -28z m-502
-75 c-4 -21 -16 -85 -25 -143 -32 -207 -99 -439 -247 -854 -26 -71 -44 -133
-41 -137 5 -9 -56 -102 -63 -96 -3 4 40 225 76 387 42 186 90 437 106 550 l17
114 67 86 c37 47 75 97 85 112 24 37 35 28 25 -19z m575 -75 c-6 -10 -64 95
-64 114 0 7 16 -14 35 -46 18 -33 32 -64 29 -68z m-614 103 c0 -6 -8 -16 -17
-23 -10 -7 -26 -27 -35 -43 -9 -17 -23 -30 -30 -30 -7 -1 -12 -6 -11 -13 4
-17 -28 -52 -40 -45 -6 3 -7 1 -3 -6 4 -6 0 -18 -8 -27 -9 -8 -16 -28 -16 -44
0 -16 -7 -35 -15 -44 -18 -17 -20 -30 -4 -20 9 5 10 -1 4 -22 -5 -16 -8 -42
-7 -58 1 -16 -3 -37 -8 -47 -6 -10 -11 -36 -12 -59 -1 -22 -5 -43 -10 -46 -4
-3 -6 -9 -3 -14 3 -5 0 -21 -6 -36 -5 -16 -12 -42 -14 -59 -5 -50 -24 -146
-34 -179 -6 -17 -13 -49 -16 -71 -3 -22 -7 -47 -10 -55 -2 -8 -7 -26 -10 -40
-3 -14 -12 -54 -20 -90 -8 -36 -18 -95 -21 -132 -5 -57 -4 -68 9 -68 9 0 19 5
23 11 4 7 10 7 16 1 6 -6 2 -26 -11 -55 -12 -25 -18 -52 -15 -60 5 -15 64 -22
64 -7 0 8 43 23 70 25 8 0 39 6 68 14 29 7 59 10 68 7 8 -3 13 -2 10 3 -3 5 3
11 14 14 11 3 18 1 14 -4 -9 -16 6 -10 27 10 13 12 30 18 46 15 14 -3 22 -1
19 5 -4 5 9 17 28 26 19 9 53 35 76 57 41 40 41 40 34 12 -9 -38 -23 -55 -43
-52 -10 2 -16 -4 -16 -17 0 -27 -83 -66 -170 -81 -11 -1 -38 -7 -60 -13 -22
-5 -41 -8 -44 -6 -2 3 -10 0 -17 -6 -8 -6 -34 -12 -59 -12 -25 -1 -45 -5 -45
-8 0 -4 -11 -9 -25 -11 -14 -3 -25 -1 -25 4 0 4 -11 1 -25 -8 -14 -9 -25 -13
-25 -10 0 4 -13 0 -30 -9 l-30 -16 0 39 c0 21 3 42 7 45 3 4 8 28 9 54 2 26 6
54 10 62 3 9 17 66 29 126 13 61 28 133 34 160 30 140 61 325 62 365 1 39 2
41 10 20 6 -17 7 -8 3 28 -4 37 -2 52 6 52 9 0 10 3 1 13 -6 9 -8 24 -3 43 10
35 7 117 -4 136 -12 18 -14 69 -3 62 5 -3 9 1 9 8 0 15 103 108 120 108 6 0 9
4 5 9 -3 5 6 18 20 29 13 11 21 22 18 26 -3 3 -2 6 3 6 5 0 18 14 27 30 18 29
37 40 37 21z m651 -168 c13 -26 23 -53 21 -61 -2 -8 1 -11 6 -8 8 5 162 -300
166 -330 1 -7 8 -19 15 -28 7 -8 9 -21 5 -27 -4 -7 -3 -9 3 -6 12 7 36 -40 28
-54 -4 -5 -2 -9 2 -9 14 0 41 -54 35 -69 -2 -8 0 -11 5 -8 13 8 35 -41 27 -56
-4 -7 -4 -9 1 -5 14 13 39 -35 41 -79 2 -43 25 -91 51 -106 11 -7 10 -11 -4
-25 -11 -12 -18 -13 -20 -5 -3 8 -10 9 -21 4 -9 -5 -35 -14 -57 -21 -22 -7
-48 -19 -57 -27 -13 -12 -29 -13 -70 -7 -29 4 -57 6 -63 5 -5 -2 -20 -4 -33
-5 -43 -2 -69 -126 -26 -126 8 0 14 -4 14 -10 0 -5 -10 -9 -22 -9 -13 1 -33
-2 -46 -5 -13 -3 -20 -1 -17 5 4 5 2 9 -3 9 -16 0 -33 86 -23 113 7 16 4 38
-9 73 -10 27 -32 87 -49 134 -30 83 -37 145 -22 184 6 15 16 -4 44 -80 47
-129 59 -189 55 -274 -2 -54 0 -67 9 -57 24 25 17 201 -9 234 -5 7 -16 47 -23
90 -7 43 -14 65 -15 48 l-2 -30 -10 30 c-6 17 -15 35 -20 42 -5 7 -7 16 -4 22
10 15 -25 6 -35 -10 -8 -11 -9 -9 -5 6 8 31 -8 48 -48 50 -43 1 -60 14 -23 17
49 2 52 3 59 13 5 6 8 4 8 -5 1 -12 3 -11 11 3 7 12 17 16 32 12 16 -5 18 -4
8 3 -8 6 -9 12 -3 16 5 3 14 0 20 -7 11 -14 42 -145 42 -178 0 -27 41 -182 46
-176 3 2 20 -10 38 -28 34 -32 46 -61 34 -80 -3 -6 8 -10 27 -11 19 0 32 3 30
7 -3 4 6 9 20 11 17 4 25 1 25 -8 0 -8 5 -14 11 -14 6 0 9 7 5 15 -3 8 -4 15
-2 15 3 0 12 3 22 7 10 3 15 2 12 -3 -4 -5 4 -9 17 -9 13 0 23 3 22 7 -1 3 3
7 8 8 16 2 53 40 58 61 3 10 0 17 -5 16 -6 -1 -20 25 -32 58 -13 33 -37 93
-55 133 -17 40 -30 76 -27 81 3 5 -1 14 -9 21 -8 7 -15 20 -15 29 0 9 -7 29
-15 45 -8 15 -12 33 -8 39 4 6 1 7 -7 2 -10 -6 -12 -4 -7 8 3 10 2 17 -3 17
-6 0 -10 9 -10 20 0 11 -3 20 -7 20 -12 0 -33 52 -26 63 3 6 1 7 -4 4 -13 -8
-25 17 -17 37 3 7 -2 16 -10 19 -9 4 -16 13 -16 22 0 8 -3 15 -8 15 -4 0 -13
15 -20 33 -7 17 -18 40 -23 49 -5 10 -9 24 -9 32 0 8 -3 16 -7 18 -12 5 -44
78 -34 78 4 0 19 -21 32 -47z m-598 12 c-7 -21 -13 -19 -13 6 0 11 4 18 10 14
5 -3 7 -12 3 -20z m-33 -160 c-12 -55 -25 -116 -30 -135 -5 -19 -14 -56 -21
-82 -7 -27 -16 -48 -21 -48 -4 0 -8 2 -8 4 0 4 19 64 27 86 3 8 8 24 10 35 2
11 12 57 23 103 11 45 24 104 27 130 4 26 9 38 10 27 2 -11 -6 -65 -17 -120z
m-94 -342 c-18 -33 -21 -26 -6 13 6 15 13 24 16 21 3 -3 -1 -18 -10 -34z m384
2 c0 6 19 9 45 7 25 -2 45 -9 45 -15 0 -6 -3 -8 -6 -4 -9 8 -68 -15 -81 -32
-6 -9 -12 -47 -12 -85 -1 -75 16 -109 47 -99 10 3 7 -4 -8 -15 -13 -11 -28
-18 -33 -15 -4 2 -4 -8 0 -24 21 -73 -11 -195 -66 -254 -19 -20 -19 -20 -17 8
2 39 16 60 27 42 5 -8 9 -9 9 -4 0 6 -4 17 -9 24 -7 10 -4 23 9 41 21 30 42
128 29 136 -5 3 -7 10 -4 15 4 5 2 9 -2 9 -22 0 -31 38 -19 74 7 20 15 34 18
30 4 -3 3 11 -2 30 -4 20 -4 38 1 41 4 3 6 12 2 20 -3 9 -2 32 2 52 5 27 9 33
16 22 5 -8 9 -9 9 -4z m191 -38 c-5 -7 -14 -31 -21 -55 -16 -60 -56 -102 -108
-112 -23 -4 -44 -5 -47 -2 -3 3 -5 38 -5 79 0 71 1 74 28 84 31 12 143 27 155
21 4 -2 4 -9 -2 -15z m-581 -1 c0 -3 -4 -8 -10 -11 -5 -3 -10 -1 -10 4 0 6 5
11 10 11 6 0 10 -2 10 -4z m-18 -38 c-7 -7 -12 -21 -12 -32 0 -10 -3 -17 -6
-13 -10 10 5 57 18 57 9 0 9 -3 0 -12z m-28 -92 c-3 -14 -11 -26 -16 -26 -5 0
-7 6 -4 13 3 6 9 20 12 30 10 27 16 13 8 -17z m621 13 c-5 -16 -4 -19 5 -14 8
5 11 4 6 -3 -3 -6 -1 -22 5 -36 9 -20 9 -29 -1 -41 -11 -13 -10 -15 1 -10 9 3
19 -6 28 -27 8 -18 16 -36 19 -40 2 -5 -2 -8 -9 -8 -7 0 -10 3 -6 6 5 6 -16
33 -73 95 -19 20 -30 25 -40 19 -8 -6 -24 -9 -35 -9 -13 1 -10 4 11 10 16 5
43 24 58 44 32 40 40 44 31 14z m-648 -71 c-3 -8 -6 -5 -6 6 -1 11 2 17 5 13
3 -3 4 -12 1 -19z m741 -184 c-4 -3 -12 5 -18 18 -12 22 -12 22 6 6 10 -10 15
-20 12 -24z m479 -33 c-11 -27 -13 -42 -6 -47 6 -3 13 -3 16 0 4 3 0 6 -8 6
-18 1 48 30 67 30 28 0 13 -21 -25 -36 -22 -8 -42 -22 -45 -29 -3 -10 -13 -11
-33 -6 -26 7 -59 3 -213 -22 -9 -2 -20 -5 -25 -9 -20 -11 -65 -18 -65 -9 0 4
21 14 48 21 26 7 53 17 60 23 6 5 12 6 12 1 0 -4 6 0 13 10 10 14 28 18 75 19
34 0 62 4 62 8 0 3 9 9 19 12 12 3 22 18 26 38 10 45 15 53 27 41 7 -7 6 -24
-5 -51z m-42 9 c-14 -28 -19 -30 -71 -30 -54 0 -86 -10 -112 -37 -7 -7 -23
-13 -35 -13 -12 0 -42 -9 -66 -20 l-44 -20 6 36 c10 58 20 65 107 63 43 -1 84
3 92 7 15 10 107 41 126 43 9 1 9 -6 -3 -29z m-789 -5 c-11 -8 -14 -15 -8 -15
7 0 12 -5 12 -12 0 -6 -3 -9 -6 -5 -7 7 -23 -7 -46 -45 -39 -61 -168 -123
-308 -148 -36 -6 -91 -20 -124 -31 -32 -11 -59 -19 -61 -17 -1 2 9 32 24 68
31 77 70 105 134 95 35 -5 72 3 280 62 32 9 69 27 83 40 14 13 28 23 32 23 4
0 -2 -7 -12 -15z m361 -17 c-3 -7 -5 -2 -5 12 0 14 2 19 5 13 2 -7 2 -19 0
-25z m-790 -12 c20 12 28 13 37 4 8 -9 8 -14 -1 -17 -7 -2 -9 -11 -6 -19 3 -7
10 -11 15 -8 6 4 13 1 17 -5 6 -9 15 -9 35 -1 15 5 37 10 49 9 13 0 3 -6 -23
-14 -24 -8 -56 -12 -70 -9 -14 3 -36 7 -48 10 -13 3 -21 1 -18 -4 3 -6 -8 -15
-25 -22 -16 -7 -36 -24 -43 -38 -8 -16 -16 -21 -20 -14 -7 11 31 72 45 72 13
0 18 29 7 36 -6 4 -8 3 -4 -4 3 -6 2 -13 -4 -17 -11 -7 -12 0 -4 32 5 20 8 21
21 7 14 -13 18 -13 40 2z"/>
<path d="M2098 1371 c-21 -24 -26 -47 -38 -159 -15 -150 -8 -199 27 -194 12 2
48 -4 81 -13 33 -8 71 -15 84 -15 25 0 60 31 71 63 9 26 -15 75 -62 125 -25
27 -42 56 -46 77 -3 19 -8 52 -11 72 -9 56 -21 73 -53 73 -20 0 -37 -9 -53
-29z m58 -3 c-3 -13 -3 -17 0 -10 10 22 23 13 28 -20 16 -101 17 -130 7 -123
-6 3 -8 11 -5 17 4 7 2 8 -4 4 -8 -5 -12 5 -12 31 0 26 -3 34 -9 24 -7 -11
-10 -10 -14 5 -3 12 -5 7 -6 -12 -1 -24 12 -49 54 -103 60 -77 65 -91 36 -91
-23 0 -50 31 -76 89 -12 29 -23 40 -33 36 -15 -6 -15 -3 3 81 6 28 6 28 -9 10
-9 -11 -16 -30 -16 -43 0 -13 -3 -23 -8 -23 -10 0 0 91 13 111 8 13 42 38 53
39 2 0 1 -10 -2 -22z m-56 -165 c0 -8 6 -13 13 -10 6 2 20 -11 30 -30 9 -19
12 -31 5 -27 -8 5 -9 2 -5 -10 18 -46 20 -69 6 -64 -8 2 -15 17 -17 31 -4 31
-22 37 -22 8 0 -37 12 -51 42 -51 28 0 30 2 24 28 -5 20 -4 23 4 12 5 -8 10
-11 10 -7 0 5 6 5 13 0 35 -22 68 -5 65 33 -1 13 -6 24 -10 24 -4 0 -8 5 -8
11 0 18 27 -9 44 -43 16 -31 10 -65 -15 -84 -17 -13 -59 -16 -74 -5 -5 4 -21
8 -35 10 -14 1 -34 3 -45 5 -11 2 -26 4 -34 5 -7 0 -11 7 -7 16 3 8 1 15 -4
15 -11 0 -13 47 -4 113 6 42 24 57 24 20z"/>
<path d="M2306 1187 c3 -10 9 -15 12 -12 3 3 0 11 -7 18 -10 9 -11 8 -5 -6z"/>
<path d="M1438 217 c-3 -19 -2 -25 4 -19 6 6 8 18 6 28 -3 14 -5 12 -10 -9z"/>
<path d="M2391 804 c0 -11 3 -14 6 -6 3 7 2 16 -1 19 -3 4 -6 -2 -5 -13z"/>
<path d="M2801 464 c0 -11 3 -14 6 -6 3 7 2 16 -1 19 -3 4 -6 -2 -5 -13z"/>
</g>
</svg>
