<?xml version="1.0" standalone="no"?>
<!DOCTYPE svg PUBLIC "-//W3C//DTD SVG 20010904//EN"
 "http://www.w3.org/TR/2001/REC-SVG-20010904/DTD/svg10.dtd">
<svg version="1.0" xmlns="http://www.w3.org/2000/svg"
 width="900.000000pt" height="900.000000pt" viewBox="0 0 900.000000 900.000000"
 preserveAspectRatio="xMidYMid meet">
<metadata>
Created by potrace 1.10, written by Peter Selinger 2001-2011
</metadata>
<g transform="translate(0.000000,900.000000) scale(0.100000,-0.100000)"
fill="#ffffff" stroke="none">
<path d="M5339 8569 c-21 -4 -56 -18 -79 -30 -57 -30 -157 -36 -237 -15 -60
16 -66 16 -142 -4 -101 -26 -172 -63 -336 -179 -118 -83 -187 -111 -277 -111
-124 0 -376 -19 -473 -36 -163 -28 -467 -112 -595 -164 -69 -28 -138 -55 -155
-60 -30 -10 -95 -42 -276 -138 -82 -43 -145 -83 -332 -212 -47 -32 -169 -142
-230 -207 -118 -127 -263 -316 -297 -387 -8 -17 -25 -46 -38 -64 -30 -41 -103
-197 -132 -282 -12 -36 -28 -78 -35 -95 -8 -16 -31 -97 -51 -180 l-38 -150 -4
-285 -3 -286 40 -179 c35 -161 57 -230 130 -412 19 -49 109 -225 180 -353 16
-31 40 -65 53 -76 13 -11 59 -67 103 -124 44 -57 96 -123 116 -147 20 -25 52
-72 70 -105 19 -34 50 -77 70 -97 20 -20 63 -72 96 -116 33 -44 70 -89 83
-100 23 -21 71 -88 94 -133 9 -18 16 -86 21 -212 4 -101 11 -209 16 -240 5
-30 12 -111 15 -180 6 -105 3 -143 -14 -235 -12 -61 -26 -158 -32 -217 -6 -59
-22 -144 -36 -190 -45 -151 -55 -212 -61 -368 -6 -187 -4 -193 98 -203 101
-11 99 -5 92 -246 -5 -188 -4 -216 16 -316 16 -79 36 -137 69 -205 42 -86 57
-106 166 -213 67 -66 164 -151 216 -190 106 -80 168 -140 181 -175 5 -13 9
-47 9 -77 0 -95 46 -108 150 -44 33 20 70 34 99 36 l46 5 57 -81 c32 -45 67
-99 77 -119 39 -77 268 -249 369 -278 30 -9 70 -14 88 -11 56 9 195 86 249
137 27 26 62 58 77 71 26 23 159 177 207 239 46 60 79 57 180 -15 40 -29 91
-32 114 -7 12 13 15 35 14 83 -2 78 14 104 114 186 35 29 99 81 141 116 82 66
151 140 234 247 39 50 56 85 78 156 61 204 76 411 38 544 -29 98 -28 148 1
191 23 34 24 34 93 31 98 -5 98 -4 85 152 -12 140 -40 277 -72 358 -36 89 -49
150 -49 231 0 66 -5 87 -32 145 -26 56 -32 78 -31 137 0 80 26 246 48 320 9
28 27 118 40 202 14 83 30 164 36 180 14 39 47 73 89 92 71 33 201 145 257
220 29 41 62 81 73 88 10 7 28 43 41 80 20 62 21 72 9 152 -17 120 -27 155
-65 241 -21 46 -36 100 -40 140 -6 52 -17 81 -54 145 -26 44 -54 96 -61 115
-13 34 -70 149 -89 180 -26 41 -71 149 -71 168 0 31 38 29 49 -1 5 -13 20 -36
34 -53 13 -16 32 -44 41 -62 10 -19 33 -54 51 -78 19 -25 41 -67 49 -94 8 -27
26 -68 40 -92 13 -24 28 -61 32 -83 4 -22 17 -58 30 -80 13 -22 30 -66 38 -98
8 -32 24 -73 36 -91 13 -22 20 -51 20 -84 0 -43 5 -57 31 -87 53 -60 100 -43
160 59 23 39 48 80 56 91 80 120 103 159 158 265 36 69 125 279 125 294 0 9
13 53 28 99 16 45 32 100 36 122 4 22 16 81 26 130 29 130 38 301 29 530 -6
158 -12 216 -29 275 -12 41 -26 100 -31 130 -22 121 -97 326 -131 357 -47 42
-63 85 -63 168 0 76 -3 86 -54 195 -30 63 -67 133 -83 154 -15 22 -28 46 -28
53 0 30 -74 93 -153 131 -145 70 -221 99 -272 106 -55 7 -71 17 -62 40 9 23
52 37 132 42 87 6 115 23 115 67 -1 32 -3 36 -142 220 -31 42 -108 126 -170
189 -247 246 -356 330 -452 349 -59 11 -197 10 -247 -2z m-1574 -678 c8 -13
-17 -35 -82 -72 -32 -18 -80 -51 -108 -74 -59 -47 -440 -239 -511 -256 -27 -7
-94 -34 -148 -60 -84 -42 -108 -49 -157 -49 -33 0 -59 4 -59 10 0 5 17 18 38
29 20 10 46 28 56 40 11 12 25 21 33 21 7 0 75 32 151 71 75 39 166 86 202
105 226 116 364 176 435 188 21 4 52 19 68 32 29 24 71 32 82 15z m2169 -201
c15 -15 -73 -69 -122 -75 -26 -4 -67 -12 -92 -20 -177 -51 -236 -53 -199 -9
19 23 119 71 165 79 21 4 64 16 94 26 55 19 134 18 154 -1z m-782 -592 c-13
-13 -64 -15 -69 -1 -2 7 8 13 24 15 36 5 57 -2 45 -14z m-734 -807 c41 -22
223 -203 297 -296 26 -33 65 -78 86 -100 64 -66 130 -143 173 -200 97 -127
230 -295 286 -360 33 -38 85 -108 116 -154 32 -46 70 -98 85 -116 35 -40 95
-128 120 -177 27 -52 25 -94 -5 -113 -27 -18 -40 -20 -221 -35 -191 -16 -424
-40 -438 -46 -14 -5 -219 -48 -327 -69 -126 -24 -281 -37 -355 -30 -38 4 -117
20 -175 36 -58 16 -134 36 -170 44 -36 8 -115 26 -176 39 -126 28 -239 44
-364 50 -84 4 -170 28 -170 48 0 6 34 44 75 87 73 75 108 119 184 236 37 56
109 163 165 245 43 63 96 143 161 245 35 55 78 120 95 145 17 25 63 93 103
152 39 58 91 131 115 162 50 65 178 197 207 214 31 17 92 14 133 -7z m-928
-1650 c74 -5 158 -15 185 -24 28 -8 68 -18 90 -22 63 -11 182 -72 209 -108 35
-47 59 -136 50 -194 -24 -173 -105 -372 -176 -434 -85 -74 -206 -139 -304
-164 -112 -28 -153 -57 -100 -71 31 -7 202 23 241 43 16 8 51 26 77 39 42 21
118 88 118 104 0 3 20 26 46 51 54 52 121 150 139 200 18 49 131 211 158 226
28 16 59 16 92 1 25 -11 83 -106 153 -253 19 -38 42 -79 51 -90 52 -58 114
-116 119 -111 5 6 2 14 -57 135 -17 35 -31 73 -31 84 0 11 -10 52 -22 91 -48
158 -12 288 97 351 57 34 192 81 288 101 100 21 510 24 620 5 137 -24 249 -86
286 -159 30 -59 45 -174 33 -241 -6 -31 -14 -76 -17 -101 -11 -80 -132 -308
-193 -363 -11 -10 -39 -28 -63 -40 -59 -30 -62 -47 -8 -47 76 0 97 -44 61
-124 -31 -67 -60 -149 -67 -186 -4 -19 -15 -46 -24 -60 -10 -14 -24 -41 -31
-60 -36 -93 -109 -167 -153 -156 -22 5 -67 76 -67 106 0 20 -41 60 -62 60 -26
0 -23 -32 7 -60 14 -13 25 -31 25 -41 0 -29 -54 -77 -100 -89 -53 -14 -83 -9
-200 34 -80 30 -97 41 -152 99 -105 110 -185 163 -273 182 -98 22 -160 16
-237 -24 -75 -38 -121 -40 -185 -5 -44 24 -56 25 -143 22 -87 -4 -101 -8 -161
-41 -36 -20 -115 -83 -178 -142 -173 -160 -263 -195 -358 -140 -41 24 -43 28
-43 71 0 36 5 50 26 69 34 32 26 55 -20 55 -38 0 -56 -14 -111 -82 -31 -39
-43 -48 -69 -48 -40 0 -55 12 -93 75 -31 51 -61 164 -84 320 -6 44 -18 105
-25 134 -20 85 -4 94 114 65 86 -22 98 -8 41 42 -120 105 -181 182 -229 289
-31 70 -59 202 -60 282 0 73 29 174 62 215 33 42 120 98 153 98 11 0 34 7 50
16 61 32 197 36 505 15z m925 -1926 c50 -15 128 -38 174 -52 46 -14 120 -27
165 -30 78 -5 126 -22 126 -44 0 -25 -45 -70 -103 -102 -145 -82 -195 -74
-327 49 l-90 84 -83 0 c-74 0 -88 -3 -128 -28 -24 -16 -67 -54 -95 -85 -58
-65 -102 -87 -176 -87 -87 1 -221 77 -245 139 -10 28 -9 35 11 58 20 23 32 27
122 34 112 8 155 18 269 59 111 40 249 42 380 5z"/>
</g>
</svg>
